<svg width="166" height="167" viewBox="0 0 166 167" fill="none" xmlns="http://www.w3.org/2000/svg">
<rect width="166" height="167" rx="15" fill="#114357"/>
<path d="M63.6951 111.495C60.4345 110.535 57.9753 108.953 56.3173 106.746C54.6778 104.559 53.858 101.662 53.858 98.055V92.3272C53.858 87.665 51.9053 85.3342 48 85.3342V81.1612C51.9053 81.1612 53.858 78.8395 53.858 74.1963V68.2098C53.8949 64.6989 54.7146 61.8688 56.3173 59.7199C57.9384 57.5518 60.3977 55.9786 63.6951 55L64.7449 58.3097C60.8951 59.5952 58.97 62.9432 58.97 68.3539V74.1675C58.97 78.5226 57.4318 81.5541 54.3554 83.2621C57.4318 84.9884 58.97 88.0488 58.97 92.4425V98.3713C59.0253 103.648 60.9503 106.919 64.7449 108.185L63.6951 111.495ZM83.3967 93.6227L94.8922 59.058H100.695L85.7735 100.961H81.0758L66.1823 59.058H71.9571L83.3967 93.6227ZM102.519 108.185C106.258 106.938 108.192 103.762 108.321 98.6588V92.3272C108.321 87.8955 109.988 84.8738 113.323 83.2621C109.988 81.6884 108.321 78.6666 108.321 74.1963V68.3539C108.321 62.9432 106.396 59.5952 102.546 58.3097L103.596 55C106.857 55.9594 109.306 57.5231 110.946 59.6911C112.586 61.8401 113.415 64.6891 113.433 68.2386V74.2827C113.433 78.8684 115.386 81.1612 119.291 81.1612V85.3342C115.386 85.3342 113.433 87.665 113.433 92.3272V98.1408C113.433 101.748 112.595 104.635 110.919 106.804C109.261 108.972 106.82 110.535 103.596 111.495L102.519 108.185Z" fill="white"/>
</svg>
