<svg width="166" height="167" viewBox="0 0 166 167" fill="none" xmlns="http://www.w3.org/2000/svg">
<path d="M83 167C128.84 167 166 129.616 166 83.5C166 37.3842 128.84 0 83 0C37.1604 0 0 37.3842 0 83.5C0 129.616 37.1604 167 83 167Z" fill="#114357"/>
<path d="M62.6951 111.495C59.4345 110.535 56.9753 108.953 55.3173 106.746C53.6778 104.559 52.858 101.662 52.858 98.055V92.3272C52.858 87.665 50.9053 85.3342 47 85.3342V81.1612C50.9053 81.1612 52.858 78.8395 52.858 74.1963V68.2098C52.8949 64.6989 53.7146 61.8688 55.3173 59.7199C56.9384 57.5518 59.3977 55.9786 62.6951 55L63.7449 58.3097C59.8951 59.5952 57.97 62.9432 57.97 68.3539V74.1675C57.97 78.5226 56.4318 81.5541 53.3554 83.2621C56.4318 84.9884 57.97 88.0488 57.97 92.4425V98.3713C58.0253 103.648 59.9503 106.919 63.7449 108.185L62.6951 111.495ZM82.3967 93.6227L93.8922 59.058H99.6946L84.7735 100.961H80.0758L65.1823 59.058H70.9571L82.3967 93.6227ZM101.519 108.185C105.258 106.938 107.192 103.762 107.321 98.6588V92.3272C107.321 87.8955 108.988 84.8738 112.323 83.2621C108.988 81.6884 107.321 78.6666 107.321 74.1963V68.3539C107.321 62.9432 105.396 59.5952 101.546 58.3097L102.596 55C105.857 55.9594 108.306 57.5231 109.946 59.6911C111.586 61.8401 112.415 64.6891 112.433 68.2386V74.2827C112.433 78.8684 114.386 81.1612 118.291 81.1612V85.3342C114.386 85.3342 112.433 87.665 112.433 92.3272V98.1408C112.433 101.748 111.595 104.635 109.919 106.804C108.261 108.972 105.82 110.535 102.596 111.495L101.519 108.185Z" fill="white"/>
</svg>
